<svg width="20" height="21" viewBox="0 0 20 21" fill="none" xmlns="http://www.w3.org/2000/svg">
<g clip-path="url(#clip0_4866_872)">
<path fill-rule="evenodd" clip-rule="evenodd" d="M1 1.12988C1 0.577598 1.44932 0.129883 2.00358 0.129883H3.50894C4.34034 0.129883 5.01431 0.801455 5.01431 1.62988V2.19043L17.5883 3.09806C18.4651 3.15266 19.1089 3.94069 18.9846 4.80727L18.1194 10.842C18.0135 11.581 17.3783 12.1299 16.6292 12.1299H5.01431V14.1299H15.0572C16.72 14.1299 18.068 15.473 18.068 17.1299C18.068 18.7867 16.72 20.1299 15.0572 20.1299C13.3945 20.1299 12.0465 18.7867 12.0465 17.1299C12.0465 16.7792 12.1069 16.4427 12.2178 16.1299H6.85015C6.9611 16.4427 7.02147 16.7792 7.02147 17.1299C7.02147 18.7867 5.67352 20.1299 4.01073 20.1299C2.34795 20.1299 1 18.7867 1 17.1299C1 15.8237 1.83779 14.7124 3.00716 14.3006V3.13912C3.00711 3.13361 3.00711 3.12809 3.00716 3.12256V2.12988H2.00358C1.44932 2.12988 1 1.68217 1 1.12988ZM5.01431 4.19433V10.1299H16.194L16.9208 5.06039L5.01431 4.19433ZM14.0537 17.1299C14.0537 16.5776 14.503 16.1299 15.0572 16.1299C15.6115 16.1299 16.0608 16.5776 16.0608 17.1299C16.0608 17.6822 15.6115 18.1299 15.0572 18.1299C14.503 18.1299 14.0537 17.6822 14.0537 17.1299ZM3.00716 17.1299C3.00716 16.5776 3.45647 16.1299 4.01073 16.1299C4.56499 16.1299 5.01431 16.5776 5.01431 17.1299C5.01431 17.6822 4.56499 18.1299 4.01073 18.1299C3.45647 18.1299 3.00716 17.6822 3.00716 17.1299Z" fill="#5C5F62"/>
</g>
<defs>
<clipPath id="clip0_4866_872">
<rect width="20" height="20" fill="white" transform="translate(0 0.129883)"/>
</clipPath>
</defs>
</svg>
