<svg width="16" height="17" viewBox="0 0 16 17" fill="none" xmlns="http://www.w3.org/2000/svg">
<g id="calendar_minor">
<path id="Primary fill" fill-rule="evenodd" clip-rule="evenodd" d="M13.2001 3.97002C13.8628 3.97002 14.4001 4.50728 14.4001 5.17002V13.97C14.4001 14.6328 13.8628 15.17 13.2001 15.17H2.8001C2.13736 15.17 1.6001 14.6328 1.6001 13.97V5.17002C1.6001 4.50728 2.13736 3.97002 2.8001 3.97002H4.0001V3.17002C4.0001 2.72842 4.3577 2.37002 4.8001 2.37002C5.2425 2.37002 5.6001 2.72842 5.6001 3.17002V3.97002H10.4001V3.17002C10.4001 2.72842 10.7577 2.37002 11.2001 2.37002C11.6425 2.37002 12.0001 2.72842 12.0001 3.17002V3.97002H13.2001ZM12.8001 7.17002H3.2001V13.57H12.8001V7.17002Z" fill="#8C9196"/>
</g>
</svg>
