<svg width="17" height="17" viewBox="0 0 17 17" fill="none" xmlns="http://www.w3.org/2000/svg">
<path fill-rule="evenodd" clip-rule="evenodd" d="M8.33335 14.53C4.80455 14.53 1.93335 11.6588 1.93335 8.12998C1.93335 4.60118 4.80455 1.72998 8.33335 1.72998C11.8621 1.72998 14.7333 4.60118 14.7333 8.12998C14.7333 11.6588 11.8621 14.53 8.33335 14.53ZM10.1677 10.7644C9.96295 10.7644 9.75815 10.686 9.60215 10.53L7.76775 8.69558C7.61735 8.54598 7.53335 8.34198 7.53335 8.12998V4.92998C7.53335 4.48838 7.89095 4.12998 8.33335 4.12998C8.77575 4.12998 9.13335 4.48838 9.13335 4.92998V7.79878L10.7333 9.39878C11.0461 9.71158 11.0461 10.2172 10.7333 10.53C10.5773 10.686 10.3725 10.7644 10.1677 10.7644Z" fill="#6D7175"/>
</svg>
