<svg width="16" height="17" viewBox="0 0 16 17" fill="none" xmlns="http://www.w3.org/2000/svg">
<g clip-path="url(#clip0_4640_824)">
<path fill-rule="evenodd" clip-rule="evenodd" d="M14.4001 6.52988C14.4001 2.99388 11.5361 0.129883 8.0001 0.129883C4.4641 0.129883 1.6001 2.99388 1.6001 6.52988C1.6001 6.64988 1.6001 6.76188 1.6081 6.88188C1.7121 9.72188 3.2001 12.9779 7.3121 15.9139C7.7201 16.2019 8.2801 16.2019 8.6881 15.9139C12.8001 12.9779 14.2881 9.72188 14.3921 6.88188C14.4001 6.76191 14.4001 6.64986 14.4001 6.52988ZM9.6969 8.22668C10.1473 7.77708 10.4001 7.16668 10.4001 6.52988C10.4001 5.89308 10.1465 5.28348 9.6969 4.83308C9.2473 4.38268 8.6369 4.12988 8.0001 4.12988C7.3633 4.12988 6.7537 4.38348 6.3033 4.83308C5.8529 5.28268 5.6001 5.89308 5.6001 6.52988C5.6001 7.16668 5.8529 7.77708 6.3033 8.22668C6.7529 8.67708 7.3633 8.92988 8.0001 8.92988C8.6361 8.92988 9.2465 8.67708 9.6969 8.22668Z" fill="#8C9196"/>
</g>
<defs>
<clipPath id="clip0_4640_824">
<rect width="16" height="16" fill="white" transform="translate(0 0.129883)"/>
</clipPath>
</defs>
</svg>
