<svg width="17" height="17" viewBox="0 0 17 17" fill="none" xmlns="http://www.w3.org/2000/svg">
<g clip-path="url(#clip0_4640_839)">
<path fill-rule="evenodd" clip-rule="evenodd" d="M3.06641 1.32988C3.06641 0.667141 3.60366 0.129883 4.26641 0.129883H13.0664C13.7291 0.129883 14.2664 0.667141 14.2664 1.32988V14.9299C14.2664 15.5926 13.7291 16.1299 13.0664 16.1299H4.26641C3.60366 16.1299 3.06641 15.5926 3.06641 14.9299V1.32988ZM4.66641 1.72988H12.6664V12.9299H4.66641V1.72988ZM7.86641 13.7299C7.42458 13.7299 7.06641 14.0881 7.06641 14.5299C7.06641 14.9717 7.42458 15.3299 7.86641 15.3299H9.46641C9.90823 15.3299 10.2664 14.9717 10.2664 14.5299C10.2664 14.0881 9.90823 13.7299 9.46641 13.7299H7.86641Z" fill="#8C9196"/>
</g>
<defs>
<clipPath id="clip0_4640_839">
<rect width="16" height="16" fill="white" transform="translate(0.666504 0.129883)"/>
</clipPath>
</defs>
</svg>
